<svg width="239" height="359" viewBox="0 0 239 359" fill="none" xmlns="http://www.w3.org/2000/svg">
<path fill-rule="evenodd" clip-rule="evenodd" d="M54.9886 0C41.1186 0 29.8748 11.2438 29.8748 25.1138C29.8748 33.0601 33.5654 40.1444 39.3259 44.7462C41.3716 46.3804 41.2334 50.3152 38.8778 51.4584C15.8653 62.6262 0 86.2176 0 113.515V289.562C0 327.636 30.8644 358.5 68.9375 358.5H170.063C208.136 358.5 239 327.636 239 289.562V113.514C239 86.2175 223.135 62.626 200.122 51.4582C197.766 50.3151 197.628 46.3803 199.674 44.7462C205.434 40.1443 209.125 33.0601 209.125 25.1138C209.125 11.2438 197.881 0 184.011 0H54.9886Z" fill="#1DABBE"/>
<path fill-rule="evenodd" clip-rule="evenodd" d="M170.288 16.9519C170.288 20.0726 172.817 22.6025 175.938 22.6025H180.439C181.942 22.6025 183.16 23.8206 183.16 25.3232C183.16 26.8257 181.942 28.0438 180.439 28.0438H161.001C157.88 28.0438 155.35 30.5737 155.35 33.6944C155.35 36.8152 157.88 39.3451 161.001 39.3451H180.439C188.183 39.3451 194.461 33.0672 194.461 25.3232C194.461 17.5791 188.183 11.3013 180.439 11.3013H175.938C172.817 11.3013 170.288 13.8311 170.288 16.9519Z" fill="white"/>
<path fill-rule="evenodd" clip-rule="evenodd" d="M129.657 329.619C129.657 332.74 132.187 335.27 135.308 335.27H152.137C190.211 335.27 221.075 304.405 221.075 266.332V159.473C221.075 156.352 218.545 153.822 215.424 153.822C212.304 153.822 209.774 156.352 209.774 159.473V266.332C209.774 298.164 183.969 323.968 152.137 323.968H135.308C132.187 323.968 129.657 326.498 129.657 329.619Z" fill="white"/>
</svg>
