<svg width="239" height="239" viewBox="0 0 239 239" fill="none" xmlns="http://www.w3.org/2000/svg">
<circle cx="119.5" cy="119.5" r="109.893" fill="#1DABBE" stroke="white" stroke-width="19.2133"/>
<path d="M80.9064 54.6297C116.034 99.4302 147.387 79.1544 163.182 57.3835C165.647 53.9857 171.152 54.3589 172.707 58.2582C218.378 172.803 167.719 190.114 131.176 190.469C81.9637 190.947 5.54535 165.378 72.4242 55.0424C74.2732 51.9919 78.7053 51.8226 80.9064 54.6297Z" fill="white"/>
<path d="M101.942 122.542C101.48 123.697 101.152 124.851 100.947 125.982M119.998 135.726C109.688 146.037 99.1166 136.083 100.947 125.982M100.947 125.982C96.0243 134.007 84.2296 141.115 76.4337 125.982M131.176 190.469C167.719 190.114 218.378 172.803 172.707 58.2582C171.152 54.3589 165.647 53.9857 163.182 57.3835C147.387 79.1544 116.034 99.4302 80.9064 54.6297C78.7053 51.8226 74.2732 51.9919 72.4242 55.0424C5.54535 165.378 81.9637 190.947 131.176 190.469Z" stroke="#1DABBE" stroke-width="5.84665" stroke-linecap="round" stroke-linejoin="round"/>
<circle cx="72.4214" cy="103.053" r="8.02512" fill="white"/>
<circle cx="72.4212" cy="103.053" r="4.01256" fill="#1DABBE"/>
<circle cx="141.208" cy="114.517" r="8.02512" fill="white"/>
<circle cx="141.208" cy="114.517" r="4.01256" fill="#1DABBE"/>
<circle cx="101.656" cy="122.542" r="4.01256" fill="#1DABBE"/>
</svg>
