<svg width="88" height="88" viewBox="0 0 88 88" fill="none" xmlns="http://www.w3.org/2000/svg">
<path d="M14.6667 29.3333C12.6416 29.3333 11 27.6917 11 25.6667V25.6667C11 23.6416 12.6416 22 14.6667 22H73.3333C75.3584 22 77 23.6416 77 25.6667V25.6667C77 27.6917 75.3584 29.3333 73.3333 29.3333H14.6667Z" fill="#4B4A45"/>
<path d="M11 44C11 46.0251 12.6416 47.6667 14.6667 47.6667H73.3333C75.3584 47.6667 77 46.0251 77 44V44C77 41.975 75.3584 40.3333 73.3333 40.3333H14.6667C12.6416 40.3333 11 41.975 11 44V44Z" fill="#4B4A45"/>
<path d="M11 62.3333C11 64.3584 12.6416 66 14.6667 66H73.3333C75.3584 66 77 64.3584 77 62.3333V62.3333C77 60.3083 75.3584 58.6667 73.3333 58.6667H14.6667C12.6416 58.6667 11 60.3083 11 62.3333V62.3333Z" fill="#4B4A45"/>
</svg>
