<svg width="144" height="144" viewBox="0 0 144 144" fill="none" xmlns="http://www.w3.org/2000/svg">
<circle cx="72" cy="72" r="64.5" fill="#1DABBE" stroke="white" stroke-width="15"/>
<path d="M54.4497 40.7814C69.265 57.125 82.5717 52.2072 91.1314 43.608C94.5314 40.1924 100.98 40.6358 102.619 45.1679C122.862 101.145 97.0389 109.813 78.2362 109.997C52.6355 110.247 13.2059 97.1753 44.6337 41.4367C46.6466 37.8666 51.6971 37.7449 54.4497 40.7814Z" fill="white"/>
<path d="M62.6724 73.6103C62.4266 74.2286 62.252 74.8469 62.1428 75.4526M72.2853 80.6726C66.7964 86.1954 61.1682 80.8635 62.1428 75.4526M62.1428 75.4526C59.522 79.7514 53.2427 83.5589 49.0923 75.4526M78.2362 109.997C97.0389 109.813 122.862 101.145 102.619 45.1679C100.98 40.6358 94.5314 40.1924 91.1314 43.608C82.5717 52.2072 69.2651 57.125 54.4497 40.7814C51.6971 37.7449 46.6466 37.8666 44.6337 41.4367C13.2059 97.1753 52.6355 110.247 78.2362 109.997Z" stroke="#1DABBE" stroke-width="4" stroke-linecap="round" stroke-linejoin="round"/>
<circle cx="46.8391" cy="63.0796" r="4.28542" fill="white"/>
<circle cx="46.839" cy="63.0797" r="2.14271" fill="#1DABBE"/>
<circle cx="83.5706" cy="69.2017" r="4.28542" fill="white"/>
<circle cx="83.5704" cy="69.202" r="2.14271" fill="#1DABBE"/>
<circle cx="62.5" cy="73.5" r="2.5" fill="#1DABBE"/>
</svg>
