<svg width="244" height="244" viewBox="0 0 244 244" fill="none" xmlns="http://www.w3.org/2000/svg">
<circle cx="121.651" cy="121.651" r="121.651" fill="#1DABBE" fill-opacity="0.5"/>
<path d="M81.2206 49.7973C119.251 97.7823 153.205 76.6074 170.701 53.0647C173.699 49.0309 180.295 49.4491 182.146 54.1212C231.773 179.343 176.197 198.301 136.082 198.69C82.0177 199.215 -1.88368 171.176 71.0573 50.2847C73.2635 46.6281 78.568 46.4504 81.2206 49.7973Z" fill="#F1E891"/>
<path d="M103.911 123.946C103.403 125.216 103.042 126.486 102.817 127.73M123.781 138.453C112.436 149.798 100.802 138.845 102.817 127.73M102.817 127.73C97.3992 136.561 84.4198 144.382 75.8408 127.73M136.082 198.69C176.197 198.301 231.773 179.343 182.146 54.1212C180.295 49.4491 173.699 49.0309 170.701 53.0647C153.205 76.6074 119.251 97.7823 81.2206 49.7973C78.568 46.4504 73.2635 46.6281 71.0573 50.2847C-1.88369 171.176 82.0177 199.215 136.082 198.69Z" stroke="white" stroke-width="7" stroke-linecap="round" stroke-linejoin="round"/>
<circle cx="70.3514" cy="102.378" r="8.8126" fill="#F1E891"/>
<circle cx="70.3514" cy="102.378" r="4.4063" fill="white"/>
<circle cx="145.888" cy="114.967" r="8.8126" fill="#F1E891"/>
<circle cx="145.888" cy="114.967" r="4.4063" fill="white"/>
<circle cx="104" cy="123" r="4" fill="white"/>
</svg>
