<svg width="246" height="246" viewBox="0 0 246 246" fill="none" xmlns="http://www.w3.org/2000/svg">
<circle cx="123" cy="123" r="123" fill="#1DABBE" fill-opacity="0.5"/>
<mask id="path-2-outside-1" maskUnits="userSpaceOnUse" x="61.675" y="35.025" width="123" height="177" fill="black">
<rect fill="white" x="61.675" y="35.025" width="123" height="177"/>
<path fill-rule="evenodd" clip-rule="evenodd" d="M93.6731 42.025C87.3678 42.025 82.2563 47.1365 82.2563 53.4418C82.2563 56.7907 83.6982 59.8028 85.9949 61.8912C86.7293 62.5589 86.5633 63.9517 85.645 64.3287C75.6874 68.4169 68.675 78.21 68.675 89.641V177.649C68.675 192.754 80.9206 205 96.0263 205H149.974C165.08 205 177.325 192.754 177.325 177.649V89.641C177.325 78.21 170.313 68.4169 160.355 64.3287C159.437 63.9517 159.271 62.5589 160.005 61.8912C162.302 59.8028 163.744 56.7907 163.744 53.4418C163.744 47.1365 158.632 42.025 152.327 42.025H93.6731Z"/>
</mask>
<path fill-rule="evenodd" clip-rule="evenodd" d="M93.6731 42.025C87.3678 42.025 82.2563 47.1365 82.2563 53.4418C82.2563 56.7907 83.6982 59.8028 85.9949 61.8912C86.7293 62.5589 86.5633 63.9517 85.645 64.3287C75.6874 68.4169 68.675 78.21 68.675 89.641V177.649C68.675 192.754 80.9206 205 96.0263 205H149.974C165.08 205 177.325 192.754 177.325 177.649V89.641C177.325 78.21 170.313 68.4169 160.355 64.3287C159.437 63.9517 159.271 62.5589 160.005 61.8912C162.302 59.8028 163.744 56.7907 163.744 53.4418C163.744 47.1365 158.632 42.025 152.327 42.025H93.6731Z" fill="white"/>
<path d="M160.355 64.3287L157.801 70.5504L160.355 64.3287ZM160.005 61.8912L164.53 66.8673L160.005 61.8912ZM85.9949 61.8912L81.4703 66.8673L85.9949 61.8912ZM88.982 53.4418C88.982 50.851 91.0823 48.7507 93.6731 48.7507V35.2993C83.6533 35.2993 75.5306 43.422 75.5306 53.4418H88.982ZM90.5196 56.915C89.5656 56.0475 88.982 54.8176 88.982 53.4418H75.5306C75.5306 58.7638 77.8307 63.558 81.4703 66.8673L90.5196 56.915ZM75.4007 89.641C75.4007 81.0315 80.6777 73.6386 88.1994 70.5504L83.0906 58.107C70.6971 63.1952 61.9493 75.3886 61.9493 89.641H75.4007ZM75.4007 177.649V89.641H61.9493V177.649H75.4007ZM96.0263 198.274C84.6351 198.274 75.4007 189.04 75.4007 177.649H61.9493C61.9493 196.469 77.2061 211.726 96.0263 211.726V198.274ZM149.974 198.274H96.0263V211.726H149.974V198.274ZM170.599 177.649C170.599 189.04 161.365 198.274 149.974 198.274V211.726C168.794 211.726 184.051 196.469 184.051 177.649H170.599ZM170.599 89.641V177.649H184.051V89.641H170.599ZM157.801 70.5504C165.322 73.6386 170.599 81.0315 170.599 89.641H184.051C184.051 75.3886 175.303 63.1952 162.909 58.107L157.801 70.5504ZM157.018 53.4418C157.018 54.8176 156.434 56.0475 155.48 56.915L164.53 66.8673C168.169 63.558 170.47 58.7638 170.47 53.4418H157.018ZM152.327 48.7507C154.918 48.7507 157.018 50.851 157.018 53.4418H170.47C170.47 43.422 162.347 35.2993 152.327 35.2993V48.7507ZM93.6731 48.7507H152.327V35.2993H93.6731V48.7507ZM162.909 58.107C165.182 59.0402 166.05 61.019 166.226 62.3211C166.399 63.6035 166.095 65.4444 164.53 66.8673L155.48 56.915C153.181 59.0057 152.593 61.8769 152.895 64.1168C153.199 66.3765 154.609 69.2403 157.801 70.5504L162.909 58.107ZM81.4703 66.8673C79.9053 65.4444 79.6015 63.6035 79.7742 62.3211C79.9496 61.019 80.8176 59.0402 83.0906 58.107L88.1994 70.5504C91.3907 69.2402 92.8008 66.3765 93.1052 64.1168C93.4069 61.8769 92.819 59.0057 90.5196 56.915L81.4703 66.8673Z" fill="#1DABBE" mask="url(#path-2-outside-1)"/>
<path fill-rule="evenodd" clip-rule="evenodd" d="M146.088 49.7313C146.088 50.9695 147.092 51.9732 148.33 51.9732H150.703C151.567 51.9732 152.267 52.6733 152.267 53.5369C152.267 54.4006 151.567 55.1006 150.703 55.1006H141.54C140.302 55.1006 139.298 56.1044 139.298 57.3425V57.3425C139.298 58.5807 140.302 59.5844 141.54 59.5844H150.703C154.043 59.5844 156.751 56.8769 156.751 53.5369C156.751 50.197 154.043 47.4894 150.703 47.4894H148.33C147.092 47.4894 146.088 48.4932 146.088 49.7313V49.7313Z" fill="#1DABBE"/>
<path fill-rule="evenodd" clip-rule="evenodd" d="M127.617 192.197C127.617 193.436 128.621 194.439 129.859 194.439H141.824C156.93 194.439 169.175 182.194 169.175 167.088V114.195C169.175 112.957 168.171 111.953 166.933 111.953V111.953C165.695 111.953 164.691 112.957 164.691 114.195V167.088C164.691 179.718 154.453 189.956 141.824 189.956H129.859C128.621 189.956 127.617 190.959 127.617 192.197V192.197Z" fill="#1DABBE"/>
</svg>
