<svg width="246" height="247" viewBox="0 0 246 247" fill="none" xmlns="http://www.w3.org/2000/svg">
<circle cx="123" cy="123.175" r="123" fill="#1DABBE" fill-opacity="0.5"/>
<circle cx="130.455" cy="148.023" r="8.93182" fill="#F1E891" stroke="white" stroke-width="2.01515"/>
<circle cx="125.485" cy="195.236" r="8.93182" fill="#F1E891" stroke="white" stroke-width="2.01515"/>
<circle cx="110.576" cy="119.034" r="8.93182" fill="#F1E891" stroke="white" stroke-width="2.01515"/>
<circle cx="110.576" cy="170.387" r="8.93182" fill="#F1E891" stroke="white" stroke-width="2.01515"/>
<circle cx="113.061" cy="180.327" r="8.93182" fill="#F1E891" stroke="white" stroke-width="2.01515"/>
<circle cx="105.606" cy="142.226" r="8.93182" fill="#F1E891" stroke="white" stroke-width="2.01515"/>
<circle cx="103.949" cy="188.609" r="8.93182" fill="#F1E891" stroke="white" stroke-width="2.01515"/>
<circle cx="90.6967" cy="132.286" r="8.93182" fill="#F1E891" stroke="white" stroke-width="2.01515"/>
<circle cx="90.6967" cy="183.64" r="8.93182" fill="#F1E891" stroke="white" stroke-width="2.01515"/>
<circle cx="78.2726" cy="148.023" r="8.93182" fill="#F1E891" stroke="white" stroke-width="2.01515"/>
<circle cx="60.0502" cy="157.963" r="8.93182" fill="#F1E891" stroke="white" stroke-width="2.01515"/>
<circle cx="74.1313" cy="176.185" r="8.93182" fill="#F1E891" stroke="white" stroke-width="2.01515"/>
<circle cx="71.6467" cy="164.589" r="8.93182" fill="#F1E891" stroke="white" stroke-width="2.01515"/>
<circle cx="54.2526" cy="99.1549" r="8.93182" fill="#F1E891" stroke="white" stroke-width="2.01515"/>
<circle cx="67.5053" cy="99.1549" r="8.93182" fill="#F1E891" stroke="white" stroke-width="2.01515"/>
<circle cx="95.6669" cy="93.3569" r="8.93182" fill="#F1E891" stroke="white" stroke-width="2.01515"/>
<circle cx="95.6669" cy="144.71" r="8.93182" fill="#F1E891" stroke="white" stroke-width="2.01515"/>
<circle cx="89.8688" cy="153.822" r="8.93182" fill="#F1E891" stroke="white" stroke-width="2.01515"/>
<circle cx="50.9394" cy="124.832" r="8.93182" fill="#F1E891" stroke="white" stroke-width="2.01515"/>
<circle cx="61.7072" cy="130.63" r="8.93182" fill="#F1E891" stroke="white" stroke-width="2.01515"/>
<circle cx="126.313" cy="114.892" r="8.93182" fill="#F1E891" stroke="white" stroke-width="2.01515"/>
<circle cx="126.313" cy="166.246" r="8.93182" fill="#F1E891" stroke="white" stroke-width="2.01515"/>
<circle cx="123" cy="81.7609" r="8.93182" fill="#F1E891" stroke="white" stroke-width="2.01515"/>
<circle cx="84.0707" cy="103.296" r="8.93182" fill="#F1E891" stroke="white" stroke-width="2.01515"/>
<circle cx="86.5554" cy="114.064" r="8.93182" fill="#F1E891" stroke="white" stroke-width="2.01515"/>
<circle cx="73.3029" cy="128.973" r="8.93182" fill="#F1E891" stroke="white" stroke-width="2.01515"/>
<circle cx="69.9902" cy="115.72" r="8.93182" fill="#F1E891" stroke="white" stroke-width="2.01515"/>
<circle cx="60.0502" cy="142.226" r="8.93182" fill="#F1E891" stroke="white" stroke-width="2.01515"/>
<circle cx="74.1313" cy="85.074" r="8.93182" fill="#F1E891" stroke="white" stroke-width="2.01515"/>
<circle cx="88.2119" cy="84.2457" r="8.93182" fill="#F1E891" stroke="white" stroke-width="2.01515"/>
<circle cx="98.1518" cy="57.7408" r="8.93182" fill="#F1E891" stroke="white" stroke-width="2.01515"/>
<circle cx="74.9599" cy="70.1649" r="8.93182" fill="#F1E891" stroke="white" stroke-width="2.01515"/>
<circle cx="142.879" cy="122.347" r="8.93182" fill="#F1E891" stroke="white" stroke-width="2.01515"/>
<circle cx="142.879" cy="173.7" r="8.93182" fill="#F1E891" stroke="white" stroke-width="2.01515"/>
<circle cx="150.333" cy="105.781" r="8.93182" fill="#F1E891" stroke="white" stroke-width="2.01515"/>
<circle cx="147.848" cy="93.3569" r="8.93182" fill="#F1E891" stroke="white" stroke-width="2.01515"/>
<circle cx="150.333" cy="157.135" r="8.93182" fill="#F1E891" stroke="white" stroke-width="2.01515"/>
<circle cx="161.101" cy="142.226" r="8.93182" fill="#F1E891" stroke="white" stroke-width="2.01515"/>
<circle cx="151.162" cy="190.266" r="8.93182" fill="#F1E891" stroke="white" stroke-width="2.01515"/>
<circle cx="98.1518" cy="117.377" r="8.93182" fill="#F1E891" stroke="white" stroke-width="2.01515"/>
<circle cx="95.6669" cy="168.731" r="8.93182" fill="#F1E891" stroke="white" stroke-width="2.01515"/>
<circle cx="130.455" cy="132.286" r="8.93182" fill="#F1E891" stroke="white" stroke-width="2.01515"/>
<circle cx="130.455" cy="183.64" r="8.93182" fill="#F1E891" stroke="white" stroke-width="2.01515"/>
<circle cx="116.373" cy="99.1549" r="8.93182" fill="#F1E891" stroke="white" stroke-width="2.01515"/>
<circle cx="104.778" cy="101.64" r="8.93182" fill="#F1E891" stroke="white" stroke-width="2.01515"/>
<circle cx="116.373" cy="131.458" r="8.93182" fill="#F1E891" stroke="white" stroke-width="2.01515"/>
<circle cx="116.373" cy="150.508" r="8.93182" fill="#F1E891" stroke="white" stroke-width="2.01515"/>
<circle cx="139.565" cy="73.4781" r="8.93182" fill="#F1E891" stroke="white" stroke-width="2.01515"/>
<circle cx="145.363" cy="54.4276" r="8.93182" fill="#F1E891" stroke="white" stroke-width="2.01515"/>
<circle cx="134.596" cy="56.0841" r="8.93182" fill="#F1E891" stroke="white" stroke-width="2.01515"/>
<circle cx="107.263" cy="79.2761" r="8.93182" fill="#F1E891" stroke="white" stroke-width="2.01515"/>
<path d="M142.491 87.5589C142.491 92.4918 138.492 96.4907 133.559 96.4907C128.626 96.4907 124.627 92.4918 124.627 87.5589C124.627 82.626 128.626 78.6271 133.559 78.6271C138.492 78.6271 142.491 82.626 142.491 87.5589ZM144.356 110.337C144.356 115.27 140.357 119.268 135.424 119.268C130.492 119.268 126.493 115.27 126.493 110.337C126.493 105.404 130.492 101.405 135.424 101.405C140.357 101.405 144.356 105.404 144.356 110.337Z" fill="#F1E891" stroke="white" stroke-width="2.01515"/>
<circle cx="135.424" cy="144.71" r="8.93182" fill="#F1E891" stroke="white" stroke-width="2.01515"/>
<circle cx="161.101" cy="123.175" r="8.93182" fill="#F1E891" stroke="white" stroke-width="2.01515"/>
<circle cx="152.818" cy="130.63" r="8.93182" fill="#F1E891" stroke="white" stroke-width="2.01515"/>
<circle cx="161.101" cy="174.529" r="8.93182" fill="#F1E891" stroke="white" stroke-width="2.01515"/>
<circle cx="150.333" cy="150.508" r="8.93182" fill="#F1E891" stroke="white" stroke-width="2.01515"/>
<circle cx="187.606" cy="154.65" r="8.93182" fill="#F1E891" stroke="white" stroke-width="2.01515"/>
<circle cx="125.485" cy="63.5388" r="8.93182" fill="#F1E891" stroke="white" stroke-width="2.01515"/>
<circle cx="120.515" cy="51.1144" r="8.93182" fill="#F1E891" stroke="white" stroke-width="2.01515"/>
<circle cx="160.273" cy="69.3367" r="8.93182" fill="#F1E891" stroke="white" stroke-width="2.01515"/>
<circle cx="95.6669" cy="71.8216" r="8.93182" fill="#F1E891" stroke="white" stroke-width="2.01515"/>
<circle cx="156.131" cy="81.7609" r="8.93182" fill="#F1E891" stroke="white" stroke-width="2.01515"/>
<circle cx="177.667" cy="77.6196" r="8.93182" fill="#F1E891" stroke="white" stroke-width="2.01515"/>
<circle cx="180.98" cy="91.7004" r="8.93182" fill="#F1E891" stroke="white" stroke-width="2.01515"/>
<circle cx="167.727" cy="99.1549" r="8.93182" fill="#F1E891" stroke="white" stroke-width="2.01515"/>
<circle cx="193.404" cy="105.781" r="8.93182" fill="#F1E891" stroke="white" stroke-width="2.01515"/>
<circle cx="167.727" cy="150.508" r="8.93182" fill="#F1E891" stroke="white" stroke-width="2.01515"/>
<circle cx="175.182" cy="119.034" r="8.93182" fill="#F1E891" stroke="white" stroke-width="2.01515"/>
<circle cx="182.637" cy="106.609" r="8.93182" fill="#F1E891" stroke="white" stroke-width="2.01515"/>
<circle cx="195.061" cy="127.316" r="8.93182" fill="#F1E891" stroke="white" stroke-width="2.01515"/>
<circle cx="184.293" cy="135.599" r="8.93182" fill="#F1E891" stroke="white" stroke-width="2.01515"/>
<circle cx="176.01" cy="158.791" r="8.93182" fill="#F1E891" stroke="white" stroke-width="2.01515"/>
<circle cx="175.182" cy="170.387" r="8.93182" fill="#F1E891" stroke="white" stroke-width="2.01515"/>
</svg>
