<svg width="239" height="359" viewBox="0 0 239 359" fill="none" xmlns="http://www.w3.org/2000/svg">
<path fill-rule="evenodd" clip-rule="evenodd" d="M54.9886 0C41.1186 0 29.8748 11.2438 29.8748 25.1138C29.8748 33.0601 33.5654 40.1444 39.3259 44.7462C41.3716 46.3804 41.2334 50.3152 38.8778 51.4584C15.8653 62.6262 0 86.2176 0 113.515V289.562C0 327.636 30.8644 358.5 68.9375 358.5H170.063C208.136 358.5 239 327.636 239 289.562V113.514C239 86.2175 223.135 62.626 200.122 51.4582C197.766 50.3151 197.628 46.3803 199.674 44.7462C205.434 40.1443 209.125 33.0601 209.125 25.1138C209.125 11.2438 197.881 0 184.011 0H54.9886Z" fill="#1DABBE"/>
<path fill-rule="evenodd" clip-rule="evenodd" d="M170.288 16.9519C170.288 20.0726 172.817 22.6025 175.938 22.6025H180.439C181.942 22.6025 183.16 23.8206 183.16 25.3232C183.16 26.8257 181.942 28.0438 180.439 28.0438H161.001C157.88 28.0438 155.35 30.5737 155.35 33.6944C155.35 36.8152 157.88 39.3451 161.001 39.3451H180.439C188.183 39.3451 194.461 33.0672 194.461 25.3232C194.461 17.5791 188.183 11.3013 180.439 11.3013H175.938C172.817 11.3013 170.288 13.8311 170.288 16.9519Z" fill="white"/>
<path fill-rule="evenodd" clip-rule="evenodd" d="M129.657 329.619C129.657 332.74 132.187 335.27 135.308 335.27H152.137C190.211 335.27 221.075 304.405 221.075 266.332V159.473C221.075 156.352 218.545 153.822 215.424 153.822C212.304 153.822 209.774 156.352 209.774 159.473V266.332C209.774 298.164 183.969 323.968 152.137 323.968H135.308C132.187 323.968 129.657 326.498 129.657 329.619Z" fill="white"/>
<circle cx="119.5" cy="178.5" r="50" fill="#1DABBE" stroke="white" stroke-width="11"/>
<path d="M104.166 151.443C117.097 165.626 128.712 161.354 136.18 153.893C139.15 150.926 144.76 151.311 146.195 155.256C163.853 203.786 141.326 211.301 124.923 211.461C102.589 211.678 68.1904 200.344 95.6108 152.014C97.371 148.912 101.762 148.807 104.166 151.443Z" fill="white"/>
<path d="M111.345 179.913C111.131 180.449 110.979 180.985 110.883 181.51M119.731 186.036C114.943 190.825 110.033 186.202 110.883 181.51M110.883 181.51C108.597 185.238 103.119 188.539 99.4984 181.51M124.923 211.461C141.326 211.301 163.853 203.786 146.195 155.256C144.76 151.311 139.15 150.926 136.18 153.893C128.712 161.354 117.097 165.626 104.166 151.443C101.762 148.807 97.371 148.912 95.6108 152.014C68.1904 200.344 102.589 211.678 124.923 211.461Z" stroke="#1DABBE" stroke-width="3" stroke-linecap="round" stroke-linejoin="round"/>
<circle cx="97.6351" cy="170.861" r="3.72715" fill="white"/>
<circle cx="97.6351" cy="170.861" r="1.86357" fill="#1DABBE"/>
<circle cx="129.582" cy="176.186" r="3.72715" fill="white"/>
<circle cx="129.582" cy="176.186" r="1.86357" fill="#1DABBE"/>
<circle cx="111.212" cy="179.913" r="1.86357" fill="#1DABBE"/>
</svg>
